<svg width="80" height="81" viewBox="0 0 80 81" fill="none" xmlns="http://www.w3.org/2000/svg">
<rect x="5.39062" y="6.13867" width="69.2185" height="69.2185" rx="34.6092" fill="#D1FADF"/>
<rect x="5.39062" y="6.13867" width="69.2185" height="69.2185" rx="34.6092" stroke="#ECFDF3" stroke-width="10.3828"/>
<path d="M35.6725 40.7428L38.5566 43.6269L45.0458 37.1377M33.2697 28.9449C34.4289 28.8524 35.5293 28.3966 36.4144 27.6423C38.4798 25.8822 41.5175 25.8822 43.5829 27.6423C44.468 28.3966 45.5684 28.8524 46.7276 28.9449C49.4326 29.1608 51.5806 31.3088 51.7965 34.0138C51.889 35.173 52.3448 36.2734 53.0991 37.1585C54.8592 39.2239 54.8592 42.2617 53.0991 44.327C52.3448 45.2121 51.889 46.3126 51.7965 47.4717C51.5806 50.1768 49.4326 52.3248 46.7276 52.5406C45.5684 52.6331 44.468 53.089 43.5829 53.8432C41.5175 55.6033 38.4798 55.6033 36.4144 53.8432C35.5293 53.089 34.4289 52.6331 33.2697 52.5406C30.5647 52.3248 28.4166 50.1768 28.2008 47.4717C28.1083 46.3126 27.6525 45.2121 26.8982 44.327C25.1381 42.2617 25.1381 39.2239 26.8982 37.1585C27.6525 36.2734 28.1083 35.173 28.2008 34.0138C28.4166 31.3088 30.5647 29.1608 33.2697 28.9449Z" stroke="#039855" stroke-width="2.8841" stroke-linecap="round" stroke-linejoin="round"/>
</svg>
